<svg width="1920" height="1590" viewBox="0 0 1920 1590" fill="none" xmlns="http://www.w3.org/2000/svg">
<g clip-path="url(#clip0)">
<rect width="1920" height="1590" fill="white"/>
<path d="M0 0H1920V1590H0V0Z" fill="#2E68FF"/>
<path d="M1497.41 268.492C1515.65 252.762 1538.91 244.076 1563 244C1612.09 244 1652.84 280.5 1657.28 327.567C1686.33 331.673 1709 356 1709 385.857C1709 418.634 1681.66 444.75 1648.54 444.75H1486C1448.17 444.75 1417 414.93 1417 377.553C1417 345.379 1440.1 318.734 1470.69 311.981C1473.3 296.231 1483.43 280.536 1497.41 268.492Z" fill="#2655CD"/>
<path d="M135.532 85.3368C115.917 68.4227 90.9002 59.0812 65 59C12.2088 59 -31.6139 98.25 -36.3828 148.863C-67.6258 153.279 -92 179.439 -92 211.545C-92 246.792 -62.6017 274.875 -26.9824 274.875H147.798C188.48 274.875 222 242.808 222 202.616C222 168.017 197.155 139.364 164.263 132.103C161.457 115.167 150.565 98.2892 135.532 85.3368Z" fill="#2655CD"/>
<path d="M1957.71 20.801C1942.22 7.44209 1922.46 0.064147 1902 0C1860.3 0 1825.69 31 1821.93 70.9745C1797.25 74.462 1778 95.1235 1778 120.481C1778 148.32 1801.22 170.5 1829.35 170.5H1967.39C1999.53 170.5 2026 145.173 2026 113.429C2026 86.1025 2006.38 63.4725 1980.4 57.7375C1978.18 44.361 1969.58 31.031 1957.71 20.801Z" fill="#2655CD"/>
</g>
<defs>
<clipPath id="clip0">
<rect width="1920" height="1590" fill="white"/>
</clipPath>
</defs>
</svg>
