<svg width="1920" height="1080" viewBox="0 0 1920 1080" fill="none" xmlns="http://www.w3.org/2000/svg">
<g clip-path="url(#clip0)">
<rect width="1920" height="1080" fill="white"/>
<path d="M0 0H1920V1080H0V0Z" fill="#2E68FF"/>
<path d="M1943.53 557.337C1923.92 540.423 1898.9 531.081 1873 531C1820.21 531 1776.39 570.25 1771.62 620.863C1740.37 625.279 1716 651.439 1716 683.545C1716 718.792 1745.4 746.875 1781.02 746.875H1955.8C1996.48 746.875 2030 714.808 2030 674.616C2030 640.017 2005.15 611.364 1972.26 604.103C1969.46 587.167 1958.56 570.289 1943.53 557.337Z" fill="#2655CD"/>
<path d="M1269.41 157.492C1287.65 141.762 1310.91 133.076 1335 133C1384.09 133 1424.84 169.5 1429.28 216.567C1458.33 220.673 1481 245 1481 274.857C1481 307.634 1453.66 333.75 1420.54 333.75H1258C1220.17 333.75 1189 303.93 1189 266.553C1189 234.379 1212.1 207.734 1242.69 200.981C1245.3 185.231 1255.43 169.536 1269.41 157.492Z" fill="#2655CD"/>
<path d="M135.532 139.337C115.917 122.423 90.9002 113.081 65 113C12.2088 113 -31.6139 152.25 -36.3828 202.863C-67.6258 207.279 -92 233.439 -92 265.545C-92 300.792 -62.6017 328.875 -26.9824 328.875H147.798C188.48 328.875 222 296.808 222 256.616C222 222.017 197.155 193.364 164.263 186.103C161.457 169.167 150.565 152.289 135.532 139.337Z" fill="#2655CD"/>
<path d="M354.704 498.885C349.17 500.278 344.334 503.644 341.106 508.35C337.878 513.057 336.48 518.78 337.174 524.445C337.868 530.11 340.607 535.326 344.876 539.114C349.145 542.902 354.65 545 360.357 545.015H424.727C428.859 545.013 432.943 544.135 436.711 542.44C440.479 540.745 443.845 538.271 446.588 535.181C449.331 532.091 451.388 528.456 452.625 524.514C453.862 520.571 454.249 516.412 453.763 512.309C453.276 508.206 451.926 504.253 449.801 500.71C447.676 497.166 444.825 494.113 441.436 491.751C438.046 489.389 434.194 487.771 430.134 487.005C426.074 486.238 421.898 486.341 417.881 487.305L410.098 489.423" stroke="#2655CD" stroke-width="8" stroke-linecap="round" stroke-linejoin="round"/>
<path d="M417.88 487.305C415.88 479.385 410.943 472.521 404.071 468.106C397.198 463.691 388.904 462.055 380.869 463.528C372.834 465.002 365.661 469.475 360.802 476.042C355.943 482.609 353.763 490.777 354.704 498.891C354.704 498.891 355.599 504.053 357.431 506.978" stroke="#2655CD" stroke-width="8" stroke-linecap="round" stroke-linejoin="round"/>
<path d="M1837.7 201.885C1832.17 203.278 1827.33 206.644 1824.11 211.35C1820.88 216.057 1819.48 221.78 1820.17 227.445C1820.87 233.11 1823.61 238.326 1827.88 242.114C1832.14 245.902 1837.65 248 1843.36 248.015H1907.73C1911.86 248.013 1915.94 247.135 1919.71 245.44C1923.48 243.745 1926.85 241.271 1929.59 238.181C1932.33 235.091 1934.39 231.456 1935.63 227.514C1936.86 223.571 1937.25 219.412 1936.76 215.309C1936.28 211.206 1934.93 207.253 1932.8 203.71C1930.68 200.166 1927.83 197.113 1924.44 194.751C1921.05 192.389 1917.19 190.771 1913.13 190.005C1909.07 189.238 1904.9 189.341 1900.88 190.305L1893.1 192.423" stroke="#2655CD" stroke-width="8" stroke-linecap="round" stroke-linejoin="round"/>
<path d="M1900.88 190.305C1898.88 182.385 1893.94 175.521 1887.07 171.106C1880.2 166.691 1871.9 165.055 1863.87 166.528C1855.83 168.002 1848.66 172.475 1843.8 179.042C1838.94 185.609 1836.76 193.777 1837.7 201.891C1837.7 201.891 1838.6 207.053 1840.43 209.978" stroke="#2655CD" stroke-width="8" stroke-linecap="round" stroke-linejoin="round"/>
</g>
<defs>
<clipPath id="clip0">
<rect width="1920" height="1080" fill="white"/>
</clipPath>
</defs>
</svg>
